# xmcd
#
# Track frame offsets: 
#        150
#        27878
#        49260
#        77134
#        101797
#        126232
#        157171
#        177093
#        196961
#        223254
#        246649
#        268256
#
# Disc length: 3857 seconds
#
# Revision: 0
# Processed by: cddbd v1.5.2PL0 Copyright (c) Steve Scherf et al.
# Submitted via: ExactAudioCopy v1.0b3
#
DISCID=b90f0f0c
DTITLE=Ngoc Son - Chia Ly
DYEAR=2000
DGENRE=
TTITLE0=Noi dau di vang
TTITLE1=Nguoi thuong ke nho
TTITLE2=Buom dem
TTITLE3=Loi cuoi tinh buon
TTITLE4=Ky niem ngay moi quen
TTITLE5=Doi la the
TTITLE6=Du tinh yeu da mat
TTITLE7=Than tho
TTITLE8=Chia ly
TTITLE9=Tinh khoc
TTITLE10=Mat Hue xua
TTITLE11=Tinh gan tinh xa
EXTD=
EXTT0=
EXTT1=
EXTT2=
EXTT3=
EXTT4=
EXTT5=
EXTT6=
EXTT7=
EXTT8=
EXTT9=
EXTT10=
EXTT11=
PLAYORDER=
